/* XPM */
static char *_2b58f4979fa45ccbcf2cff84a19f55f6PmPIpal0vMSlQ7e[] = {
/* columns rows colors chars-per-pixel */
"20 20 112 2 ",
"   c None",
".  c black",
"X  c #110D0D",
"o  c #1D1A1A",
"O  c #323233",
"+  c gray20",
"@  c #383839",
"#  c #4C494A",
"$  c #504F50",
"%  c #615E5F",
"&  c #636061",
"*  c #686565",
"=  c #6C6C6C",
"-  c #6F6C6C",
";  c #727272",
":  c #757576",
">  c #797475",
",  c #7B7A7B",
"<  c #878788",
"1  c #898788",
"2  c #89898A",
"3  c #8D8D8E",
"4  c #8E8E8F",
"5  c #928C8D",
"6  c #918E8E",
"7  c #8F8F90",
"8  c #989395",
"9  c #999696",
"0  c #989697",
"q  c #9C9697",
"w  c #9A9898",
"e  c #9B9B9B",
"r  c #9D9B9C",
"t  c gray61",
"y  c #A09B9B",
"u  c #A09B9C",
"i  c #A49B9E",
"p  c #A59FA1",
"a  c #A1A1A3",
"s  c #A3A0A2",
"d  c #A2A2A2",
"f  c #A4A1A3",
"g  c #AAA5A6",
"h  c #ADA8A9",
"j  c #ADA9AA",
"k  c #AFAEAF",
"l  c #B2AEAF",
"z  c gray69",
"x  c #B1B3B3",
"c  c #B6B4B4",
"v  c #B8B3B3",
"b  c #BCB9BB",
"n  c #BDBABB",
"m  c #C3BCBD",
"M  c #C2BDBE",
"N  c #C0BEBE",
"B  c #C4BDBF",
"V  c #C4C4C5",
"C  c #C8C2C3",
"Z  c #CBC4C6",
"A  c #CBC7C8",
"S  c #D3CCCD",
"D  c #D4CECF",
"F  c #D7CFD1",
"G  c #D5D1D2",
"H  c gainsboro",
"J  c #E2DADB",
"K  c #E3E0E1",
"L  c #E9E1E2",
"P  c #EEE5E6",
"I  c #EEE5E7",
"U  c #EEE6E7",
"Y  c #EFE7E8",
"T  c #EFEAEB",
"R  c #F0E8E9",
"E  c #F1E8EA",
"W  c #F1E9EA",
"Q  c #F2E9EA",
"!  c #F2EAEB",
"~  c #F3EAEC",
"^  c #F3EBEC",
"/  c #F6EEEF",
"(  c #F9EFF1",
")  c #F3F3F3",
"_  c #F7F0F1",
"`  c #F5F1F2",
"'  c #F9F0F2",
"]  c #FAF2F3",
"[  c #FCF2F3",
"{  c #FBF3F4",
"}  c #FBF4F5",
"|  c #F8F5F6",
" . c #F9F6F7",
".. c #FCF5F6",
"X. c #FFF5F6",
"o. c #FDF7F7",
"O. c #FEF6F7",
"+. c #FBF7F8",
"@. c gray98",
"#. c #FEF8F8",
"$. c #FFF8FA",
"%. c snow",
"&. c #FFFAFB",
"*. c #FEFBFB",
"=. c #FFFBFC",
"-. c gray99",
";. c #FDFDFD",
":. c #FFFCFD",
">. c #FFFDFE",
",. c #FEFEFE",
"<. c #FFFEFF",
"1. c white",
/* pixels */
"            :               = 7         ",
"        c 1.,               @ T @.O     ",
"      k 1.h                   % 1.)     ",
"      1.F                       q 1.3   ",
"    d 1.&                         ..H   ",
"    b X.                          { K   ",
"    1 1.                        6 1.e   ",
"      1.M                       $.`     ",
"      * 1.A < 2 d z x V r e d -.1.#     ",
"        i 1.1.1.1.1.1.o.1.1.1.1.6       ",
"        9 / P P P P P P P E Y -.        ",
"        t { R R Y R R R E ~ E o.        ",
"        ; 1.$.X.$.R P R o.( o.1.        ",
"          1.f $ g { R _ 8 + > +.        ",
"          G . . . S 1.J . . . B         ",
"          l . . . M 1.L . . . f         ",
"          n h X = ' ~ X.r o r n         ",
"            ..1.1.[ R ( 1.1...          ",
"              3 h C F Z v 9             ",
"                                        "
};
