<svg xmlns="http://www.w3.org/2000/svg" viewBox="18 32.74 220 190.52" width="220" height="191" preserveAspectRatio="xMidYMin meet">
  <defs>
    <linearGradient id="frac" x1="0" y1="0" x2="1" y2="1">
      <stop offset="0" stop-color="#ff4fd8"/>
      <stop offset="0.35" stop-color="#c86bff"/>
      <stop offset="0.65" stop-color="#5b7bff"/>
      <stop offset="1" stop-color="#26f5c2"/>
    </linearGradient>
  </defs>
  <path d="M128.00 32.74L121.12 44.65L134.88 44.65Z M121.12 44.65L114.25 56.55L128.00 56.55Z M134.88 44.65L128.00 56.55L141.75 56.55Z M114.25 56.55L107.38 68.46L121.12 68.46Z M107.38 68.46L100.50 80.37L114.25 80.37Z M121.12 68.46L114.25 80.37L128.00 80.37Z M141.75 56.55L134.88 68.46L148.62 68.46Z M134.88 68.46L128.00 80.37L141.75 80.37Z M148.62 68.46L141.75 80.37L155.50 80.37Z M100.50 80.37L93.62 92.28L107.38 92.28Z M93.62 92.28L86.75 104.18L100.50 104.18Z M107.38 92.28L100.50 104.18L114.25 104.18Z M86.75 104.18L79.88 116.09L93.62 116.09Z M79.88 116.09L73.00 128.00L86.75 128.00Z M93.62 116.09L86.75 128.00L100.50 128.00Z M114.25 104.18L107.38 116.09L121.12 116.09Z M107.38 116.09L100.50 128.00L114.25 128.00Z M121.12 116.09L114.25 128.00L128.00 128.00Z M155.50 80.37L148.62 92.28L162.38 92.28Z M148.62 92.28L141.75 104.18L155.50 104.18Z M162.38 92.28L155.50 104.18L169.25 104.18Z M141.75 104.18L134.88 116.09L148.62 116.09Z M134.88 116.09L128.00 128.00L141.75 128.00Z M148.62 116.09L141.75 128.00L155.50 128.00Z M169.25 104.18L162.38 116.09L176.12 116.09Z M162.38 116.09L155.50 128.00L169.25 128.00Z M176.12 116.09L169.25 128.00L183.00 128.00Z M73.00 128.00L66.12 139.91L79.88 139.91Z M66.12 139.91L59.25 151.82L73.00 151.82Z M79.88 139.91L73.00 151.82L86.75 151.82Z M59.25 151.82L52.38 163.72L66.12 163.72Z M52.38 163.72L45.50 175.63L59.25 175.63Z M66.12 163.72L59.25 175.63L73.00 175.63Z M86.75 151.82L79.88 163.72L93.62 163.72Z M79.88 163.72L73.00 175.63L86.75 175.63Z M93.62 163.72L86.75 175.63L100.50 175.63Z M45.50 175.63L38.62 187.54L52.38 187.54Z M38.62 187.54L31.75 199.45L45.50 199.45Z M52.38 187.54L45.50 199.45L59.25 199.45Z M31.75 199.45L24.88 211.35L38.62 211.35Z M24.88 211.35L18.00 223.26L31.75 223.26Z M38.62 211.35L31.75 223.26L45.50 223.26Z M59.25 199.45L52.38 211.35L66.12 211.35Z M52.38 211.35L45.50 223.26L59.25 223.26Z M66.12 211.35L59.25 223.26L73.00 223.26Z M100.50 175.63L93.62 187.54L107.38 187.54Z M93.62 187.54L86.75 199.45L100.50 199.45Z M107.38 187.54L100.50 199.45L114.25 199.45Z M86.75 199.45L79.88 211.35L93.62 211.35Z M79.88 211.35L73.00 223.26L86.75 223.26Z M93.62 211.35L86.75 223.26L100.50 223.26Z M114.25 199.45L107.38 211.35L121.12 211.35Z M107.38 211.35L100.50 223.26L114.25 223.26Z M121.12 211.35L114.25 223.26L128.00 223.26Z M183.00 128.00L176.12 139.91L189.88 139.91Z M176.12 139.91L169.25 151.82L183.00 151.82Z M189.88 139.91L183.00 151.82L196.75 151.82Z M169.25 151.82L162.38 163.72L176.12 163.72Z M162.38 163.72L155.50 175.63L169.25 175.63Z M176.12 163.72L169.25 175.63L183.00 175.63Z M196.75 151.82L189.88 163.72L203.62 163.72Z M189.88 163.72L183.00 175.63L196.75 175.63Z M203.62 163.72L196.75 175.63L210.50 175.63Z M155.50 175.63L148.62 187.54L162.38 187.54Z M148.62 187.54L141.75 199.45L155.50 199.45Z M162.38 187.54L155.50 199.45L169.25 199.45Z M141.75 199.45L134.88 211.35L148.62 211.35Z M134.88 211.35L128.00 223.26L141.75 223.26Z M148.62 211.35L141.75 223.26L155.50 223.26Z M169.25 199.45L162.38 211.35L176.12 211.35Z M162.38 211.35L155.50 223.26L169.25 223.26Z M176.12 211.35L169.25 223.26L183.00 223.26Z M210.50 175.63L203.62 187.54L217.38 187.54Z M203.62 187.54L196.75 199.45L210.50 199.45Z M217.38 187.54L210.50 199.45L224.25 199.45Z M196.75 199.45L189.88 211.35L203.62 211.35Z M189.88 211.35L183.00 223.26L196.75 223.26Z M203.62 211.35L196.75 223.26L210.50 223.26Z M224.25 199.45L217.38 211.35L231.12 211.35Z M217.38 211.35L210.50 223.26L224.25 223.26Z M231.12 211.35L224.25 223.26L238.00 223.26Z" fill="url(#frac)"/>
</svg>
